<?xml version="1.0" encoding="UTF-8"?> <svg xmlns="http://www.w3.org/2000/svg" width="81" height="48.602" viewBox="0 0 81 48.602"><g id="Group_1" data-name="Group 1" transform="translate(-46.612 -49.875)"><path id="Path_2" data-name="Path 2" d="M423.674,58.569a13.415,13.415,0,0,0-3.006-4.61,13.651,13.651,0,0,0-4.66-3.009,16.3,16.3,0,0,0-6.037-1.075H398.828V79.042h11.143a16.409,16.409,0,0,0,6.037-1.069,13.232,13.232,0,0,0,7.666-7.624,16.73,16.73,0,0,0,0-11.78Zm-4.979,10.2A9.075,9.075,0,0,1,416.859,72a7.916,7.916,0,0,1-2.892,2.029,10.782,10.782,0,0,1-4,.7h-5.743V54.192h5.743a10.747,10.747,0,0,1,4,.715,7.91,7.91,0,0,1,2.892,2.023,9.1,9.1,0,0,1,1.835,3.229,14.636,14.636,0,0,1,0,8.612Z" transform="translate(-323.056 0)" fill="#f36a10"></path><path id="Path_3" data-name="Path 3" d="M61.729,50.165l-3.02,4.278h5.4L46.612,79.3h5.4L72.53,50.165Z" transform="translate(0 -0.266)" fill="#e50019"></path><path id="Path_4" data-name="Path 4" d="M124.872,353.958H142.15v-4.345H127.892Z" transform="translate(-71.781 -274.923)" fill="#f36a10"></path><path id="Path_5" data-name="Path 5" d="M84.582,50.165H72.7v4.278h8.859Z" transform="translate(-23.933 -0.266)" fill="#f36a10"></path><path id="Path_6" data-name="Path 6" d="M727.078,50.165l-3.021,4.278h5.4L711.961,79.3h5.4l20.519-29.136Z" transform="translate(-610.266 -0.266)" fill="#e50019"></path><path id="Path_7" data-name="Path 7" d="M790.211,353.958h17.278v-4.345H793.228Z" transform="translate(-682.037 -274.923)" fill="#f36a10"></path><path id="Path_8" data-name="Path 8" d="M749.912,50.165H738.034v4.278h8.857Z" transform="translate(-634.18 -0.266)" fill="#f36a10"></path><path id="Path_9" data-name="Path 9" d="M105.743,520.039c-6.839-1.235-13.973-.385-19.711,3.79-5.739-4.175-12.872-5.025-19.712-3.79-6.58,1.188-13.139,3.8-19.709,3.79v4.328c6.57,0,13.1-2.147,19.711-3.341a24.6,24.6,0,0,1,19.71,4.424,24.6,24.6,0,0,1,19.71-4.424c6.61,1.195,13.141,3.341,19.709,3.341v-4.328C118.883,523.838,112.322,521.227,105.743,520.039Z" transform="translate(0 -430.762)" fill="#f36a10"></path></g></svg> 